<svg xmlns="http://www.w3.org/2000/svg" viewBox="0 0 2400 900" width="2400" height="900" role="img">
<defs>
  <pattern id="r" width="50" height="50" patternUnits="userSpaceOnUse">
    <path d="M50 0H0V50" fill="none" stroke="rgba(236,224,198,0.045)" stroke-width="1"/>
  </pattern>
  <linearGradient id="v" x1="0" y1="0" x2="0" y2="1">
    <stop offset="0" stop-color="#E99C1E" stop-opacity=".13"/>
    <stop offset="1" stop-color="#E99C1E" stop-opacity="0"/>
  </linearGradient>
</defs>
<rect width="2400" height="900" fill="#0A0A0B"/>
<rect width="2400" height="900" fill="url(#r)"/>
<rect width="2400" height="900" fill="url(#v)"/>
<g transform="translate(400,0)">
<g transform="translate(150,150)">
  <rect width="740" height="600" fill="#131315" stroke="rgba(236,224,198,0.2)" stroke-width="2"/>
  <path d="M0 56h740" stroke="rgba(236,224,198,0.16)" stroke-width="2"/>
  <text x="26" y="37" font-family="ui-monospace,SFMono-Regular,Menlo,monospace" font-size="19" letter-spacing="3" fill="rgba(236,224,198,0.44)">NOBLEMIND</text>
  <g transform="translate(34,96)">
    <rect x="300" width="372" height="86" rx="6" fill="rgba(236,224,198,0.09)" stroke="rgba(236,224,198,0.16)" stroke-width="1.5"/>
    <g fill="rgba(236,224,198,0.3)"><rect x="322" y="24" width="300" height="11"/><rect x="322" y="52" width="210" height="11"/></g>
    <rect y="120" width="440" height="180" rx="6" fill="rgba(236,224,198,0.04)" stroke="#E99C1E" stroke-width="1.8"/>
    <g fill="rgba(236,224,198,0.34)"><rect x="24" y="146" width="370" height="11"/><rect x="24" y="176" width="392" height="11"/><rect x="24" y="206" width="300" height="11"/><rect x="24" y="236" width="340" height="11"/></g>
    <rect x="300" y="330" width="372" height="60" rx="6" fill="rgba(236,224,198,0.09)" stroke="rgba(236,224,198,0.16)" stroke-width="1.5"/>
    <g fill="rgba(236,224,198,0.3)"><rect x="322" y="356" width="240" height="11"/></g>
  </g>
  <rect x="34" y="518" width="672" height="56" rx="8" fill="rgba(236,224,198,0.05)" stroke="rgba(236,224,198,0.22)" stroke-width="1.8"/>
  <rect x="56" y="540" width="14" height="14" fill="#E99C1E"/>
</g>
<g transform="translate(1000,210)" font-family="ui-monospace,SFMono-Regular,Menlo,monospace">
  <g transform="translate(0,0)">
    <rect width="18" height="18" fill="rgba(236,224,198,0.26)"/>
    <text x="46" y="16" font-size="27" letter-spacing="4" fill="rgba(236,224,198,0.5)">OPENAI</text>
  </g><g transform="translate(0,78)">
    <rect width="18" height="18" fill="#E99C1E"/>
    <text x="46" y="16" font-size="27" letter-spacing="4" fill="rgba(236,224,198,0.82)">CLAUDE</text>
  </g><g transform="translate(0,156)">
    <rect width="18" height="18" fill="rgba(236,224,198,0.26)"/>
    <text x="46" y="16" font-size="27" letter-spacing="4" fill="rgba(236,224,198,0.5)">GEMINI</text>
  </g><g transform="translate(0,234)">
    <rect width="18" height="18" fill="rgba(236,224,198,0.26)"/>
    <text x="46" y="16" font-size="27" letter-spacing="4" fill="rgba(236,224,198,0.5)">KIMI</text>
  </g><g transform="translate(0,312)">
    <rect width="18" height="18" fill="rgba(236,224,198,0.26)"/>
    <text x="46" y="16" font-size="27" letter-spacing="4" fill="rgba(236,224,198,0.5)">GROK</text>
  </g>
  <g transform="translate(0,440)">
    <rect x="2" y="26" width="66" height="52" rx="6" fill="none" stroke="#E99C1E" stroke-width="2.5"/>
    <path d="M17 26v-16a18 18 0 0 1 36 0v16" fill="none" stroke="#E99C1E" stroke-width="2.5"/>
    <circle cx="35" cy="52" r="6" fill="#E99C1E"/>
    <text x="96" y="50" font-size="22" letter-spacing="3" fill="rgba(236,224,198,0.52)">SCHLUESSEL</text>
    <text x="96" y="82" font-size="22" letter-spacing="3" fill="rgba(236,224,198,0.52)">BLEIBEN LOKAL</text>
  </g>
</g></g>
<g transform="translate(400,0)">
  <g fill="none" stroke="rgba(236,224,198,0.3)" stroke-width="2">
    <path d="M44 78V44h34M1522 44h34v34M1556 822v34h-34M78 856H44v-34"/>
  </g>
  <g font-family="ui-monospace,SFMono-Regular,Menlo,monospace" font-size="21" letter-spacing="3.4">
    <text x="70" y="838" fill="#E99C1E">NOBLEMIND</text>
    <text x="1530" y="838" fill="rgba(236,224,198,0.42)" text-anchor="end">5 ANBIETER · KEIN BACKEND</text>
  </g>
</g>
</svg>
